<svg width="148" height="20" viewBox="0 0 148 20" fill="none" xmlns="http://www.w3.org/2000/svg">
<path d="M6.68075 7.552H16.1608V1.24H22.0648V19H16.1608V12.208H6.68075V19H0.752753V1.24H6.68075V7.552ZM40.2022 1.24H46.2502V10.336C46.2502 12.064 45.7702 13.624 44.8102 15.016C43.8502 16.408 42.5542 17.504 40.9222 18.304C39.2902 19.088 37.5062 19.48 35.5702 19.48C33.4902 19.48 31.6022 19.088 29.9062 18.304C28.2102 17.52 26.8662 16.44 25.8742 15.064C24.8982 13.672 24.4022 12.112 24.3862 10.384V1.24H30.5302V10.384C30.5302 11.84 31.0262 12.912 32.0182 13.6C33.0262 14.288 34.2182 14.632 35.5942 14.632C36.3142 14.632 37.0262 14.496 37.7302 14.224C38.4342 13.936 39.0182 13.472 39.4822 12.832C39.9622 12.192 40.2022 11.376 40.2022 10.384V1.24ZM73.9558 1.24V19H68.0518V10.984L64.1398 19H58.6918L54.5158 10.888V19H48.5878V1.24H55.3558L61.4038 13.456L67.3558 1.24H73.9558ZM100.299 19H94.3233L92.6673 15.952H82.6113L80.9553 19H74.9793L84.6033 1.24H90.6753L100.299 19ZM87.6513 6.664L84.7713 11.944H90.5073L87.6513 6.664ZM107.226 19H101.298V1.24L107.226 19ZM123.978 19H118.074H123.978ZM118.074 12.112V1.24H123.978V19H118.074L107.226 8.128V19H101.298V1.24H107.226L118.074 12.112ZM139.465 8.44C141.033 8.44 142.401 8.552 143.569 8.776C144.753 8.984 145.737 9.44 146.521 10.144C147.321 10.848 147.721 11.872 147.721 13.216C147.721 15.696 146.617 17.376 144.409 18.256C142.217 19.12 139.753 19.552 137.017 19.552C134.297 19.552 131.777 19.112 129.457 18.232C127.137 17.336 125.977 15.64 125.977 13.144L132.097 13.12C132.097 14.224 132.593 14.928 133.585 15.232C134.593 15.52 135.769 15.664 137.113 15.664C138.377 15.664 139.457 15.48 140.353 15.112C141.265 14.744 141.721 14.144 141.721 13.312V13.288C141.721 12.824 141.441 12.48 140.881 12.256C140.321 12.032 139.721 11.896 139.081 11.848C138.441 11.8 137.673 11.768 136.777 11.752H134.977C133.249 11.752 131.745 11.648 130.465 11.44C129.201 11.216 128.137 10.736 127.273 10C126.409 9.264 125.977 8.176 125.977 6.736C125.977 4.24 127.097 2.616 129.337 1.864C131.593 1.096 134.153 0.711999 137.017 0.711999C139.705 0.711999 142.161 1.152 144.385 2.032C146.609 2.912 147.721 4.608 147.721 7.12H141.697C141.697 6.32 141.241 5.728 140.329 5.344C139.433 4.944 138.337 4.72 137.041 4.672C135.649 4.672 134.473 4.832 133.513 5.152C132.553 5.472 132.073 5.976 132.073 6.664C132.073 7.384 132.561 7.864 133.537 8.104C134.513 8.344 135.617 8.464 136.849 8.464L139.465 8.44Z" fill="#7784EE"/>
</svg>
